<?xml version="1.0" standalone="no"?><!DOCTYPE svg PUBLIC "-//W3C//DTD SVG 1.1//EN" "http://www.w3.org/Graphics/SVG/1.1/DTD/svg11.dtd"><svg t="1551011028879" class="icon" style="" viewBox="0 0 1024 1024" version="1.1" xmlns="http://www.w3.org/2000/svg" p-id="6004" xmlns:xlink="http://www.w3.org/1999/xlink" width="200" height="200"><defs><style type="text/css"></style></defs><path d="M828.01742 195.642842C743.476979 111.100354 631.076002 64.541969 511.516999 64.541969c-119.55798 0-231.959979 46.558385-316.500421 131.09985C110.47716 280.18226 63.918775 392.58426 63.918775 512.14224c0 87.103824 25.045419 171.548074 72.429613 244.204861 9.393951 14.402011 28.685319 18.46249 43.087331 9.071609 14.404058-9.393951 18.46556-28.685319 9.072633-43.089377-40.768519-62.511729-62.317301-135.194098-62.317301-210.187093 0-212.469066 172.85586-385.326972 385.325949-385.326972s385.325949 172.857906 385.325949 385.326972-172.85586 385.326972-385.325949 385.326972c-70.357418 0-139.188062-19.131733-199.052498-55.323003-14.71412-8.900717-33.856086-4.180206-42.753733 10.534937-8.896624 14.71719-4.180206 33.856086 10.534937 42.753733 69.584821 42.070164 149.556201 64.307631 231.271294 64.307631 119.559003 0 231.959979-46.558385 316.500421-131.09985 84.539418-84.539418 131.097804-196.941418 131.097804-316.499397S912.556838 280.18226 828.01742 195.642842zM494.28964 205.783807c-21.782096 0-39.397289 17.658172-39.397289 39.439244l0 283.524378c0 1.360997 0.358157 2.706645 0.493234 4.03285 2.020006 19.886933 18.959817 34.573423 39.379892 34.573423l0 0 0.146333-0.832971 223.590358 0c21.782096 0 39.438221-17.616216 39.438221-39.397289s-17.658172-39.397289-39.439244-39.397289L533.686928 487.726154l0-242.503103C533.686928 223.441978 516.071735 205.783807 494.28964 205.783807z" p-id="6005"></path></svg>