<?xml version="1.0" standalone="no"?><!DOCTYPE svg PUBLIC "-//W3C//DTD SVG 1.1//EN" "http://www.w3.org/Graphics/SVG/1.1/DTD/svg11.dtd"><svg t="1534843024584" class="icon" style="" viewBox="0 0 1024 1024" version="1.1" xmlns="http://www.w3.org/2000/svg" p-id="9631" xmlns:xlink="http://www.w3.org/1999/xlink" width="32" height="32"><defs><style type="text/css"></style></defs><path d="M512 947.137549m-76.862451 0a76.862451 76.862451 0 1 0 153.724902 0 76.862451 76.862451 0 1 0-153.724902 0Z" fill="#8a8a8a" p-id="9632"></path><path d="M512 821.467442m-14.41171 0a14.41171 14.41171 0 1 0 28.82342 0 14.41171 14.41171 0 1 0-28.82342 0Z" fill="#8a8a8a" p-id="9633"></path><path d="M512 754.212798m-14.41171 0a14.41171 14.41171 0 1 0 28.82342 0 14.41171 14.41171 0 1 0-28.82342 0Z" fill="#8a8a8a" p-id="9634"></path><path d="M512 686.958153m-14.41171 0a14.41171 14.41171 0 1 0 28.82342 0 14.41171 14.41171 0 1 0-28.82342 0Z" fill="#8a8a8a" p-id="9635"></path><path d="M512 619.703509m-14.41171 0a14.41171 14.41171 0 1 0 28.82342 0 14.41171 14.41171 0 1 0-28.82342 0Z" fill="#8a8a8a" p-id="9636"></path><path d="M512 552.448865m-14.41171 0a14.41171 14.41171 0 1 0 28.82342 0 14.41171 14.41171 0 1 0-28.82342 0Z" fill="#8a8a8a" p-id="9637"></path><path d="M512 485.19422m-14.41171 0a14.41171 14.41171 0 1 0 28.82342 0 14.41171 14.41171 0 1 0-28.82342 0Z" fill="#8a8a8a" p-id="9638"></path><path d="M512 417.939576m-14.41171 0a14.41171 14.41171 0 1 0 28.82342 0 14.41171 14.41171 0 1 0-28.82342 0Z" fill="#8a8a8a" p-id="9639"></path><path d="M512 350.684932m-14.41171 0a14.41171 14.41171 0 1 0 28.82342 0 14.41171 14.41171 0 1 0-28.82342 0Z" fill="#8a8a8a" p-id="9640"></path><path d="M512 283.430287m-14.41171 0a14.41171 14.41171 0 1 0 28.82342 0 14.41171 14.41171 0 1 0-28.82342 0Z" fill="#8a8a8a" p-id="9641"></path><path d="M512 216.175643m-14.41171 0a14.41171 14.41171 0 1 0 28.82342 0 14.41171 14.41171 0 1 0-28.82342 0Z" fill="#8a8a8a" p-id="9642"></path><path d="M512 148.920998m-14.41171 0a14.41171 14.41171 0 1 0 28.82342 0 14.41171 14.41171 0 1 0-28.82342 0Z" fill="#8a8a8a" p-id="9643"></path><path d="M512 81.666354m-14.41171 0a14.41171 14.41171 0 1 0 28.82342 0 14.41171 14.41171 0 1 0-28.82342 0Z" fill="#8a8a8a" p-id="9644"></path><path d="M512 14.41171m-14.41171 0a14.41171 14.41171 0 1 0 28.82342 0 14.41171 14.41171 0 1 0-28.82342 0Z" fill="#8a8a8a" p-id="9645"></path></svg>