<svg xmlns="http://www.w3.org/2000/svg" width="64" height="64" viewBox="0 0 64 64">
  <metadata><?xpacket begin="﻿" id="W5M0MpCehiHzreSzNTczkc9d"?>
<x:xmpmeta xmlns:x="adobe:ns:meta/" x:xmptk="Adobe XMP Core 5.6-c138 79.159824, 2016/09/14-01:09:01        ">
   <rdf:RDF xmlns:rdf="http://www.w3.org/1999/02/22-rdf-syntax-ns#">
      <rdf:Description rdf:about=""
            xmlns:xmp="http://ns.adobe.com/xap/1.0/">
         <xmp:CreatorTool>Adobe Photoshop CC 2017 (Windows)</xmp:CreatorTool>
      </rdf:Description>
   </rdf:RDF>
</x:xmpmeta>
                                                                                                    
                                                                                                    
                                                                                                    
                                                                                                    
                                                                                                    
                                                                                                    
                                                                                                    
                                                                                                    
                                                                                                    
                                                                                                    
                                                                                                    
                                                                                                    
                                                                                                    
                                                                                                    
                                                                                                    
                                                                                                    
                                                                                                    
                                                                                                    
                                                                                                    
                                                                                                    
                           
<?xpacket end="w"?></metadata>
<defs>
    <style>
      .cls-1 {
        fill: #119dee;
        fill-rule: evenodd;
      }
    </style>
  </defs>
  <path id="c" class="cls-1" d="M635,974a6,6,0,0,0-6,6v15H599V980a6,6,0,0,0-6-6h-2V964a6,6,0,0,1,6-6h34a6,6,0,0,1,6,6v10h-2Zm4,38h-6v2a3,3,0,0,1-6,0v-2H601v2a3,3,0,0,1-6,0v-2h-6a6,6,0,0,1-6-6V982a4,4,0,0,1,4-4h4a4,4,0,0,1,4,4v17h38V982a4,4,0,0,1,4-4h4a4,4,0,0,1,4,4v24A6,6,0,0,1,639,1012Zm-24.076-40.5a7.51,7.51,0,0,0-6.188,2.788,9.982,9.982,0,0,0-2.074,6.562,9.84,9.84,0,0,0,2.074,6.528,7.572,7.572,0,0,0,6.154,2.652,7.818,7.818,0,0,0,5.236-1.7,8.387,8.387,0,0,0,2.618-5.134h-2.72q-0.612,4.557-5.134,4.556a4.735,4.735,0,0,1-4.046-1.87,8.114,8.114,0,0,1-1.394-5.066,8.213,8.213,0,0,1,1.428-5.1,4.842,4.842,0,0,1,4.046-1.938,5.459,5.459,0,0,1,3.4.986,4.706,4.706,0,0,1,1.632,3.06h2.686a7.092,7.092,0,0,0-2.482-4.794,8.313,8.313,0,0,0-5.236-1.53h0Z" transform="translate(-582 -955.5)"/>
</svg>
