<svg xmlns="http://www.w3.org/2000/svg" width="46" height="46" viewBox="0 0 46 46">
  <metadata><?xpacket begin="﻿" id="W5M0MpCehiHzreSzNTczkc9d"?>
<x:xmpmeta xmlns:x="adobe:ns:meta/" x:xmptk="Adobe XMP Core 5.6-c138 79.159824, 2016/09/14-01:09:01        ">
   <rdf:RDF xmlns:rdf="http://www.w3.org/1999/02/22-rdf-syntax-ns#">
      <rdf:Description rdf:about=""/>
   </rdf:RDF>
</x:xmpmeta>
                                                                                                    
                                                                                                    
                                                                                                    
                                                                                                    
                                                                                                    
                                                                                                    
                                                                                                    
                                                                                                    
                                                                                                    
                                                                                                    
                                                                                                    
                                                                                                    
                                                                                                    
                                                                                                    
                                                                                                    
                                                                                                    
                                                                                                    
                                                                                                    
                                                                                                    
                                                                                                    
                           
<?xpacket end="w"?></metadata>
<defs>
    <style>
      .cls-1 {
        fill: #119dee;
        fill-rule: evenodd;
      }
    </style>
  </defs>
  <path id="座位" class="cls-1" d="M679,889h5a4,4,0,0,1,4,4v24a4,4,0,0,1-4,4h-5a4,4,0,0,1-4-4V893A4,4,0,0,1,679,889Zm0,2h5a2,2,0,0,1,2,2v24a2,2,0,0,1-2,2h-5a2,2,0,0,1-2-2V893A2,2,0,0,1,679,891Zm31-2h5a4,4,0,0,1,4,4v24a4,4,0,0,1-4,4h-5a4,4,0,0,1-4-4V893A4,4,0,0,1,710,889Zm0,2h5a2,2,0,0,1,2,2v24a2,2,0,0,1-2,2h-5a2,2,0,0,1-2-2V893A2,2,0,0,1,710,891Zm-22,11h18v2H688v-2Zm0,11h18v2H688v-2Zm24-24v-4a4,4,0,0,0-4-4H686a4,4,0,0,0-4,4v4h-2v-4a6,6,0,0,1,6-6h22a6,6,0,0,1,6,6v4h-2Z" transform="translate(-674 -877)"/>
</svg>
