<svg xmlns="http://www.w3.org/2000/svg" width="64" height="64" viewBox="0 0 64 64">
  <metadata><?xpacket begin="﻿" id="W5M0MpCehiHzreSzNTczkc9d"?>
<x:xmpmeta xmlns:x="adobe:ns:meta/" x:xmptk="Adobe XMP Core 5.6-c138 79.159824, 2016/09/14-01:09:01        ">
   <rdf:RDF xmlns:rdf="http://www.w3.org/1999/02/22-rdf-syntax-ns#">
      <rdf:Description rdf:about=""/>
   </rdf:RDF>
</x:xmpmeta>
                                                                                                    
                                                                                                    
                                                                                                    
                                                                                                    
                                                                                                    
                                                                                                    
                                                                                                    
                                                                                                    
                                                                                                    
                                                                                                    
                                                                                                    
                                                                                                    
                                                                                                    
                                                                                                    
                                                                                                    
                                                                                                    
                                                                                                    
                                                                                                    
                                                                                                    
                                                                                                    
                           
<?xpacket end="w"?></metadata>
<defs>
    <style>
      .cls-1 {
        fill: #cbcbcb;
        fill-rule: evenodd;
      }
    </style>
  </defs>
  <path id="A" class="cls-1" d="M483,974a6,6,0,0,0-6,6v15H447V980a6,6,0,0,0-6-6h-2V964a6,6,0,0,1,6-6h34a6,6,0,0,1,6,6v10h-2Zm4,38h-6v2a3,3,0,0,1-6,0v-2H449v2a3,3,0,0,1-6,0v-2h-6a6,6,0,0,1-6-6V982a4,4,0,0,1,4-4h4a4,4,0,0,1,4,4v17h38V982a4,4,0,0,1,4-4h4a4,4,0,0,1,4,4v24A6,6,0,0,1,487,1012Zm-35.023-20.016h2.64l2.28-6h9.84l2.28,6h2.67l-8.43-21.42h-2.85Zm9.81-18.78h0.12l4.05,10.71h-8.28Z" transform="translate(-430 -955.5)"/>
</svg>
