<svg xmlns="http://www.w3.org/2000/svg" width="64" height="64" viewBox="0 0 64 64">
  <metadata><?xpacket begin="﻿" id="W5M0MpCehiHzreSzNTczkc9d"?>
<x:xmpmeta xmlns:x="adobe:ns:meta/" x:xmptk="Adobe XMP Core 5.6-c138 79.159824, 2016/09/14-01:09:01        ">
   <rdf:RDF xmlns:rdf="http://www.w3.org/1999/02/22-rdf-syntax-ns#">
      <rdf:Description rdf:about=""/>
   </rdf:RDF>
</x:xmpmeta>
                                                                                                    
                                                                                                    
                                                                                                    
                                                                                                    
                                                                                                    
                                                                                                    
                                                                                                    
                                                                                                    
                                                                                                    
                                                                                                    
                                                                                                    
                                                                                                    
                                                                                                    
                                                                                                    
                                                                                                    
                                                                                                    
                                                                                                    
                                                                                                    
                                                                                                    
                                                                                                    
                           
<?xpacket end="w"?></metadata>
<defs>
    <style>
      .cls-1 {
        fill: #cbcbcb;
        fill-rule: evenodd;
      }
    </style>
  </defs>
  <path id="B" class="cls-1" d="M483,1050a6,6,0,0,0-6,6v15H447v-15a6,6,0,0,0-6-6h-2v-10a6,6,0,0,1,6-6h34a6,6,0,0,1,6,6v10h-2Zm4,38h-6v2a3,3,0,0,1-6,0v-2H449v2a3,3,0,0,1-6,0v-2h-6a6,6,0,0,1-6-6v-24a4,4,0,0,1,4-4h4a4,4,0,0,1,4,4v17h38v-17a4,4,0,0,1,4-4h4a4,4,0,0,1,4,4v24A6,6,0,0,1,487,1088Zm-33.184-19.72h9.51a9.186,9.186,0,0,0,5.19-1.29,5.3,5.3,0,0,0,2.22-4.68,5.112,5.112,0,0,0-1.2-3.48,5.4,5.4,0,0,0-3.27-1.74,5.686,5.686,0,0,0,2.61-1.71,5.161,5.161,0,0,0,.96-3.12,4.9,4.9,0,0,0-1.71-3.96,7.212,7.212,0,0,0-4.74-1.44h-9.57v21.42Zm9-19.35a5.6,5.6,0,0,1,3.42.87,3.193,3.193,0,0,1,1.17,2.7,3.362,3.362,0,0,1-1.2,2.79,5.481,5.481,0,0,1-3.42.93h-6.51v-7.29h6.54Zm0.3,9.33a6.192,6.192,0,0,1,3.78.96,3.56,3.56,0,0,1,1.38,3.06,3.379,3.379,0,0,1-1.59,3.09,6.885,6.885,0,0,1-3.57.84h-6.84v-7.95h6.84Z" transform="translate(-430 -1031.5)"/>
</svg>
