<svg xmlns="http://www.w3.org/2000/svg" width="64" height="64" viewBox="0 0 64 64">
  <metadata><?xpacket begin="﻿" id="W5M0MpCehiHzreSzNTczkc9d"?>
<x:xmpmeta xmlns:x="adobe:ns:meta/" x:xmptk="Adobe XMP Core 5.6-c138 79.159824, 2016/09/14-01:09:01        ">
   <rdf:RDF xmlns:rdf="http://www.w3.org/1999/02/22-rdf-syntax-ns#">
      <rdf:Description rdf:about=""
            xmlns:xmp="http://ns.adobe.com/xap/1.0/">
         <xmp:CreatorTool>Adobe Photoshop CC 2017 (Windows)</xmp:CreatorTool>
      </rdf:Description>
   </rdf:RDF>
</x:xmpmeta>
                                                                                                    
                                                                                                    
                                                                                                    
                                                                                                    
                                                                                                    
                                                                                                    
                                                                                                    
                                                                                                    
                                                                                                    
                                                                                                    
                                                                                                    
                                                                                                    
                                                                                                    
                                                                                                    
                                                                                                    
                                                                                                    
                                                                                                    
                                                                                                    
                                                                                                    
                                                                                                    
                           
<?xpacket end="w"?></metadata>
<defs>
    <style>
      .cls-1 {
        fill: #cbcbcb;
        fill-rule: evenodd;
      }
    </style>
  </defs>
  <path id="D" class="cls-1" d="M635,1050a6,6,0,0,0-6,6v15H599v-15a6,6,0,0,0-6-6h-2v-10a6,6,0,0,1,6-6h34a6,6,0,0,1,6,6v10h-2Zm4,38h-6v2a3,3,0,0,1-6,0v-2H601v2a3,3,0,0,1-6,0v-2h-6a6,6,0,0,1-6-6v-24a4,4,0,0,1,4-4h4a4,4,0,0,1,4,4v17h38v-17a4,4,0,0,1,4-4h4a4,4,0,0,1,4,4v24A6,6,0,0,1,639,1088Zm-33.881-19.82h7.44q5.04,0,7.74-2.94,2.58-2.82,2.58-7.77,0-5.04-2.4-7.77-2.582-2.94-7.68-2.94h-7.68v21.42Zm7.29-19.29q4.2,0,6.18,2.19,1.86,2.1,1.86,6.39,0,4.17-2.01,6.36-2.131,2.22-6.3,2.22h-4.56v-17.16h4.83Z" transform="translate(-582 -1031.5)"/>
</svg>
