<svg xmlns="http://www.w3.org/2000/svg" width="64" height="64" viewBox="0 0 64 64">
  <metadata><?xpacket begin="﻿" id="W5M0MpCehiHzreSzNTczkc9d"?>
<x:xmpmeta xmlns:x="adobe:ns:meta/" x:xmptk="Adobe XMP Core 5.6-c138 79.159824, 2016/09/14-01:09:01        ">
   <rdf:RDF xmlns:rdf="http://www.w3.org/1999/02/22-rdf-syntax-ns#">
      <rdf:Description rdf:about=""
            xmlns:xmp="http://ns.adobe.com/xap/1.0/">
         <xmp:CreatorTool>Adobe Photoshop CC 2017 (Windows)</xmp:CreatorTool>
      </rdf:Description>
   </rdf:RDF>
</x:xmpmeta>
                                                                                                    
                                                                                                    
                                                                                                    
                                                                                                    
                                                                                                    
                                                                                                    
                                                                                                    
                                                                                                    
                                                                                                    
                                                                                                    
                                                                                                    
                                                                                                    
                                                                                                    
                                                                                                    
                                                                                                    
                                                                                                    
                                                                                                    
                                                                                                    
                                                                                                    
                                                                                                    
                           
<?xpacket end="w"?></metadata>
<defs>
    <style>
      .cls-1 {
        fill: #cbcbcb;
        fill-rule: evenodd;
      }
    </style>
  </defs>
  <path id="F" class="cls-1" d="M483,1126a6,6,0,0,0-6,6v15H447v-15a6,6,0,0,0-6-6h-2v-10a6,6,0,0,1,6-6h34a6,6,0,0,1,6,6v10h-2Zm4,38h-6v2a3,3,0,0,1-6,0v-2H449v2a3,3,0,0,1-6,0v-2h-6a6,6,0,0,1-6-6v-24a4,4,0,0,1,4-4h4a4,4,0,0,1,4,4v17h38v-17a4,4,0,0,1,4-4h4a4,4,0,0,1,4,4v24A6,6,0,0,1,487,1164Zm-32.057-20.09h2.46v-9.96h11.25v-2.13H457.4v-7.2h11.88v-2.13h-14.34v21.42Z" transform="translate(-430 -1107.5)"/>
</svg>
